<svg xmlns="http://www.w3.org/2000/svg" xmlns:xlink="http://www.w3.org/1999/xlink" width="500" zoomAndPan="magnify" viewBox="0 0 375 374.999991" height="500" preserveAspectRatio="xMidYMid meet" version="1.0"><defs><g/><clipPath id="734080b355"><path d="M 129.925781 89 L 245.425781 89 L 245.425781 219.488281 L 129.925781 219.488281 Z M 129.925781 89 " clip-rule="nonzero"/></clipPath><clipPath id="46c96e3c1e"><path d="M 129.925781 89 L 229 89 L 229 196 L 129.925781 196 Z M 129.925781 89 " clip-rule="nonzero"/></clipPath></defs><g clip-path="url(#734080b355)"><path fill="#233dff" d="M 245.070312 127.707031 C 245.0625 125.53125 244.601562 123.605469 243.660156 121.953125 C 242.734375 120.328125 241.347656 118.96875 239.496094 117.890625 C 224.167969 109.042969 208.820312 100.222656 193.496094 91.367188 C 189.367188 88.980469 185.359375 89.066406 181.253906 91.488281 C 175.15625 95.089844 144.609375 112.609375 135.503906 117.886719 C 131.757812 120.058594 129.929688 123.382812 129.929688 127.703125 C 129.925781 145.496094 129.929688 163.289062 129.925781 181.085938 C 129.925781 183.214844 130.371094 185.101562 131.269531 186.730469 C 132.195312 188.402344 133.601562 189.804688 135.5 190.898438 C 144.601562 196.179688 175.15625 213.695312 181.257812 217.300781 C 185.359375 219.722656 189.367188 219.808594 193.5 217.421875 C 208.820312 208.5625 224.167969 199.742188 239.503906 190.894531 C 241.398438 189.792969 242.804688 188.394531 243.730469 186.726562 C 244.625 185.097656 245.074219 183.207031 245.074219 181.078125 C 245.074219 181.078125 245.074219 145.503906 245.070312 127.707031 " fill-opacity="1" fill-rule="nonzero"/></g><g clip-path="url(#46c96e3c1e)"><path fill="#050a30" d="M 193.390625 91.480469 C 189.265625 89.101562 185.269531 89.1875 181.175781 91.601562 C 175.085938 95.195312 144.582031 112.667969 135.492188 117.933594 C 131.753906 120.097656 129.929688 123.414062 129.929688 127.726562 C 129.925781 145.472656 129.929688 163.21875 129.925781 180.96875 C 129.925781 183.089844 130.371094 184.972656 131.269531 186.59375 C 132.191406 188.261719 133.59375 189.664062 135.492188 190.761719 C 137.574219 191.964844 140.78125 193.8125 144.558594 195.988281 L 228.710938 111.828125 C 216.941406 105.050781 205.160156 98.277344 193.394531 91.480469 " fill-opacity="1" fill-rule="nonzero"/></g><path fill="#f4f6fc" d="M 199.402344 146.285156 L 217.320312 146.410156 C 217.320312 138.941406 209.757812 120.660156 188.09375 120.660156 C 174.289062 120.660156 155.730469 129.433594 155.730469 154.667969 C 155.730469 179.902344 173.921875 188.128906 188.09375 188.128906 C 211.042969 188.128906 216.523438 172.25 216.523438 163.277344 L 199.425781 162.300781 C 199.425781 162.300781 199.886719 172.675781 188.003906 172.675781 C 177.03125 172.675781 175.203125 159.238281 175.203125 154.667969 C 175.203125 147.71875 177.671875 136.566406 188.003906 136.566406 C 198.335938 136.566406 199.402344 146.285156 199.402344 146.285156 " fill-opacity="1" fill-rule="nonzero"/><g fill="#050a30" fill-opacity="1"><g transform="translate(95.273198, 263.903625)"><g><path d="M 9.613281 -16.363281 C 9.613281 -22.601562 14.113281 -25.695312 18.617188 -25.695312 C 22.367188 -25.695312 26.164062 -23.539062 27.242188 -19.179688 L 35.355469 -19.179688 C 34.324219 -27.617188 27.054688 -33.339844 18.617188 -33.339844 C 9.238281 -33.339844 1.640625 -26.023438 1.640625 -16.363281 C 1.640625 -6.707031 9.238281 0.46875 18.617188 0.46875 C 27.148438 0.46875 34.183594 -5.203125 35.402344 -13.785156 L 27.289062 -13.785156 C 26.257812 -9.332031 22.460938 -7.082031 18.617188 -7.082031 C 14.113281 -7.082031 9.613281 -10.175781 9.613281 -16.363281 Z M 9.613281 -16.363281 "/></g></g></g><g fill="#050a30" fill-opacity="1"><g transform="translate(130.766385, 263.903625)"><g><path d="M 27.242188 -12.660156 C 27.242188 -21.710938 20.492188 -26.210938 13.738281 -26.210938 C 6.941406 -26.210938 0.1875 -21.710938 0.1875 -12.660156 C 0.1875 -3.65625 6.988281 0.84375 13.738281 0.84375 C 20.492188 0.84375 27.242188 -3.65625 27.242188 -12.660156 Z M 7.597656 -12.660156 C 7.597656 -16.972656 10.644531 -19.132812 13.738281 -19.132812 C 17.113281 -19.132812 19.835938 -16.972656 19.835938 -12.660156 C 19.835938 -8.394531 16.785156 -6.285156 13.738281 -6.285156 C 10.644531 -6.285156 7.597656 -8.394531 7.597656 -12.660156 Z M 7.597656 -12.660156 "/></g></g></g><g fill="#050a30" fill-opacity="1"><g transform="translate(159.039004, 263.903625)"><g><path d="M 8.535156 -22.835938 L 8.535156 -25.367188 L 1.078125 -25.367188 L 1.078125 0 L 8.910156 0 L 8.910156 -13.785156 C 8.910156 -17.019531 11.535156 -18.898438 13.738281 -18.898438 C 15.753906 -18.898438 17.675781 -17.347656 17.675781 -13.925781 L 17.675781 0 L 25.179688 0 L 25.179688 -13.972656 C 25.226562 -20.304688 23.257812 -25.648438 16.035156 -25.742188 C 13.316406 -25.742188 10.316406 -25.085938 8.535156 -22.835938 Z M 8.535156 -22.835938 "/></g></g></g><g fill="#050a30" fill-opacity="1"><g transform="translate(186.092566, 263.903625)"><g><path d="M 16.878906 0.046875 L 16.644531 -6.046875 C 15.988281 -5.90625 15.238281 -5.8125 14.535156 -5.8125 C 12.753906 -5.8125 11.113281 -6.519531 11.113281 -8.769531 L 11.113281 -18.757812 L 16.410156 -18.757812 L 16.410156 -25.085938 L 11.113281 -25.085938 L 11.113281 -30.574219 L 3.75 -29.914062 L 3.75 -25.085938 L 0.421875 -25.085938 L 0.421875 -18.757812 L 3.75 -18.757812 L 3.75 -8.769531 C 3.75 -2.203125 7.128906 0.421875 12.707031 0.421875 C 13.972656 0.421875 15.378906 0.28125 16.878906 0.046875 Z M 16.878906 0.046875 "/></g></g></g><g fill="#050a30" fill-opacity="1"><g transform="translate(204.143857, 263.903625)"><g><path d="M 12.941406 -25.789062 C 4.6875 -25.789062 0.65625 -19.976562 0.65625 -13.035156 C 0.65625 -6.046875 4.828125 0.328125 12.847656 0.328125 C 15.285156 0.328125 17.769531 -0.375 19.507812 -2.53125 L 19.507812 0 L 26.867188 0 L 26.867188 -25.367188 L 19.507812 -25.367188 L 19.507812 -22.742188 C 17.863281 -24.851562 15.425781 -25.789062 12.941406 -25.789062 Z M 13.738281 -6.753906 C 9.988281 -6.753906 8.066406 -9.800781 8.066406 -12.847656 C 8.066406 -15.941406 9.941406 -18.992188 13.738281 -18.992188 C 16.925781 -18.992188 19.507812 -16.222656 19.507812 -12.847656 C 19.507812 -9.472656 16.925781 -6.753906 13.738281 -6.753906 Z M 13.738281 -6.753906 "/></g></g></g><g fill="#050a30" fill-opacity="1"><g transform="translate(232.885337, 263.903625)"><g><path d="M 26.164062 -10.785156 L 18.851562 -10.785156 C 18.003906 -7.972656 15.707031 -6.660156 13.457031 -6.660156 C 10.644531 -6.660156 7.832031 -8.722656 7.832031 -12.707031 C 7.832031 -16.691406 10.644531 -18.757812 13.457031 -18.757812 C 15.707031 -18.757812 18.003906 -17.394531 18.851562 -14.582031 L 26.164062 -14.582031 C 25.179688 -22.039062 19.320312 -25.695312 13.457031 -25.695312 C 7.035156 -25.695312 0.609375 -21.289062 0.609375 -12.707031 C 0.609375 -4.125 7.035156 0.28125 13.457031 0.28125 C 19.320312 0.28125 25.179688 -3.375 26.164062 -10.785156 Z M 26.164062 -10.785156 "/></g></g></g><g fill="#050a30" fill-opacity="1"><g transform="translate(260.267099, 263.903625)"><g><path d="M 16.878906 0.046875 L 16.644531 -6.046875 C 15.988281 -5.90625 15.238281 -5.8125 14.535156 -5.8125 C 12.753906 -5.8125 11.113281 -6.519531 11.113281 -8.769531 L 11.113281 -18.757812 L 16.410156 -18.757812 L 16.410156 -25.085938 L 11.113281 -25.085938 L 11.113281 -30.574219 L 3.75 -29.914062 L 3.75 -25.085938 L 0.421875 -25.085938 L 0.421875 -18.757812 L 3.75 -18.757812 L 3.75 -8.769531 C 3.75 -2.203125 7.128906 0.421875 12.707031 0.421875 C 13.972656 0.421875 15.378906 0.28125 16.878906 0.046875 Z M 16.878906 0.046875 "/></g></g></g></svg>