<svg xmlns="http://www.w3.org/2000/svg" xmlns:xlink="http://www.w3.org/1999/xlink" width="500" zoomAndPan="magnify" viewBox="0 0 375 149.999998" height="200" preserveAspectRatio="xMidYMid meet" version="1.0"><defs><g/><clipPath id="975c23ba8e"><path d="M 0 10 L 114.75 10 L 114.75 140 L 0 140 Z M 0 10 " clip-rule="nonzero"/></clipPath></defs><g clip-path="url(#975c23ba8e)"><path fill="#233dff" d="M 114.699219 48.390625 C 114.695312 46.222656 114.234375 44.304688 113.296875 42.660156 C 112.375 41.039062 110.992188 39.683594 109.148438 38.613281 C 93.878906 29.800781 78.589844 21.011719 63.324219 12.191406 C 59.210938 9.8125 55.21875 9.898438 51.132812 12.3125 C 45.058594 15.898438 14.625 33.351562 5.554688 38.609375 C 1.824219 40.773438 0.0078125 44.082031 0.00390625 48.386719 C 0 66.113281 0.00390625 83.835938 0 101.5625 C 0 103.683594 0.445312 105.566406 1.339844 107.1875 C 2.261719 108.851562 3.660156 110.246094 5.554688 111.339844 C 14.621094 116.601562 45.058594 134.046875 51.132812 137.636719 C 55.21875 140.050781 59.210938 140.136719 63.332031 137.757812 C 78.589844 128.933594 93.878906 120.148438 109.152344 111.335938 C 111.042969 110.238281 112.441406 108.84375 113.363281 107.183594 C 114.257812 105.558594 114.703125 103.679688 114.703125 101.554688 C 114.703125 101.554688 114.703125 66.117188 114.699219 48.390625 " fill-opacity="1" fill-rule="nonzero"/></g><path fill="#050a30" d="M 63.222656 12.304688 C 59.113281 9.933594 55.128906 10.019531 51.050781 12.425781 C 44.984375 16.003906 14.601562 33.410156 5.546875 38.65625 C 1.820312 40.8125 0.0078125 44.117188 0.00390625 48.410156 C 0 66.089844 0.00390625 83.765625 0 101.445312 C 0 103.5625 0.445312 105.433594 1.339844 107.050781 C 2.257812 108.714844 3.65625 110.105469 5.542969 111.199219 C 7.617188 112.402344 10.8125 114.242188 14.578125 116.40625 L 98.402344 32.574219 C 86.679688 25.824219 74.945312 19.074219 63.222656 12.304688 " fill-opacity="1" fill-rule="nonzero"/><path fill="#f4f6fc" d="M 69.207031 66.894531 L 87.058594 67.019531 C 87.058594 59.582031 79.527344 41.371094 57.941406 41.371094 C 44.191406 41.371094 25.707031 50.113281 25.707031 75.246094 C 25.707031 100.382812 43.828125 108.578125 57.941406 108.578125 C 80.804688 108.578125 86.265625 92.761719 86.265625 83.824219 L 69.234375 82.851562 C 69.234375 82.851562 69.691406 93.1875 57.851562 93.1875 C 46.925781 93.1875 45.101562 79.800781 45.101562 75.246094 C 45.101562 68.324219 47.5625 57.21875 57.851562 57.21875 C 68.144531 57.21875 69.207031 66.894531 69.207031 66.894531 " fill-opacity="1" fill-rule="nonzero"/><g fill="#050a30" fill-opacity="1"><g transform="translate(127.042722, 96.614564)"><g><path d="M 12.886719 -21.9375 C 12.886719 -30.296875 18.917969 -34.445312 24.953125 -34.445312 C 29.980469 -34.445312 35.070312 -31.550781 36.519531 -25.707031 L 47.390625 -25.707031 C 46.007812 -37.019531 36.265625 -44.6875 24.953125 -44.6875 C 12.382812 -44.6875 2.199219 -34.882812 2.199219 -21.9375 C 2.199219 -8.988281 12.382812 0.628906 24.953125 0.628906 C 36.390625 0.628906 45.820312 -6.976562 47.453125 -18.480469 L 36.582031 -18.480469 C 35.199219 -12.507812 30.105469 -9.492188 24.953125 -9.492188 C 18.917969 -9.492188 12.886719 -13.640625 12.886719 -21.9375 Z M 12.886719 -21.9375 "/></g></g></g><g fill="#050a30" fill-opacity="1"><g transform="translate(174.619148, 96.614564)"><g><path d="M 36.519531 -16.96875 C 36.519531 -29.101562 27.46875 -35.136719 18.414062 -35.136719 C 9.300781 -35.136719 0.25 -29.101562 0.25 -16.96875 C 0.25 -4.902344 9.363281 1.132812 18.414062 1.132812 C 27.46875 1.132812 36.519531 -4.902344 36.519531 -16.96875 Z M 10.183594 -16.96875 C 10.183594 -22.753906 14.269531 -25.644531 18.414062 -25.644531 C 22.941406 -25.644531 26.585938 -22.753906 26.585938 -16.96875 C 26.585938 -11.25 22.5 -8.421875 18.414062 -8.421875 C 14.269531 -8.421875 10.183594 -11.25 10.183594 -16.96875 Z M 10.183594 -16.96875 "/></g></g></g><g fill="#050a30" fill-opacity="1"><g transform="translate(212.516847, 96.614564)"><g><path d="M 11.4375 -30.609375 L 11.4375 -34.003906 L 1.445312 -34.003906 L 1.445312 0 L 11.941406 0 L 11.941406 -18.480469 C 11.941406 -22.816406 15.460938 -25.328125 18.414062 -25.328125 C 21.117188 -25.328125 23.695312 -23.253906 23.695312 -18.667969 L 23.695312 0 L 33.753906 0 L 33.753906 -18.730469 C 33.816406 -27.214844 31.175781 -34.378906 21.496094 -34.507812 C 17.851562 -34.507812 13.828125 -33.625 11.4375 -30.609375 Z M 11.4375 -30.609375 "/></g></g></g><g fill="#050a30" fill-opacity="1"><g transform="translate(248.780477, 96.614564)"><g><path d="M 22.628906 0.0625 L 22.3125 -8.109375 C 21.433594 -7.917969 20.425781 -7.792969 19.484375 -7.792969 C 17.097656 -7.792969 14.894531 -8.738281 14.894531 -11.753906 L 14.894531 -25.140625 L 22 -25.140625 L 22 -33.625 L 14.894531 -33.625 L 14.894531 -40.980469 L 5.027344 -40.101562 L 5.027344 -33.625 L 0.566406 -33.625 L 0.566406 -25.140625 L 5.027344 -25.140625 L 5.027344 -11.753906 C 5.027344 -2.953125 9.554688 0.566406 17.035156 0.566406 C 18.730469 0.566406 20.617188 0.378906 22.628906 0.0625 Z M 22.628906 0.0625 "/></g></g></g><g fill="#050a30" fill-opacity="1"><g transform="translate(272.977118, 96.614564)"><g><path d="M 17.347656 -34.570312 C 6.285156 -34.570312 0.878906 -26.777344 0.878906 -17.472656 C 0.878906 -8.109375 6.472656 0.441406 17.222656 0.441406 C 20.488281 0.441406 23.820312 -0.503906 26.148438 -3.394531 L 26.148438 0 L 36.015625 0 L 36.015625 -34.003906 L 26.148438 -34.003906 L 26.148438 -30.484375 C 23.945312 -33.3125 20.679688 -34.570312 17.347656 -34.570312 Z M 18.414062 -9.050781 C 13.386719 -9.050781 10.8125 -13.136719 10.8125 -17.222656 C 10.8125 -21.371094 13.324219 -25.457031 18.414062 -25.457031 C 22.691406 -25.457031 26.148438 -21.746094 26.148438 -17.222656 C 26.148438 -12.695312 22.691406 -9.050781 18.414062 -9.050781 Z M 18.414062 -9.050781 "/></g></g></g><g fill="#050a30" fill-opacity="1"><g transform="translate(311.503298, 96.614564)"><g><path d="M 35.070312 -14.457031 L 25.265625 -14.457031 C 24.136719 -10.683594 21.054688 -8.925781 18.039062 -8.925781 C 14.269531 -8.925781 10.496094 -11.691406 10.496094 -17.035156 C 10.496094 -22.375 14.269531 -25.140625 18.039062 -25.140625 C 21.054688 -25.140625 24.136719 -23.320312 25.265625 -19.546875 L 35.070312 -19.546875 C 33.753906 -29.539062 25.894531 -34.445312 18.039062 -34.445312 C 9.429688 -34.445312 0.816406 -28.535156 0.816406 -17.035156 C 0.816406 -5.53125 9.429688 0.378906 18.039062 0.378906 C 25.894531 0.378906 33.753906 -4.527344 35.070312 -14.457031 Z M 35.070312 -14.457031 "/></g></g></g><g fill="#050a30" fill-opacity="1"><g transform="translate(348.206858, 96.614564)"><g><path d="M 22.628906 0.0625 L 22.3125 -8.109375 C 21.433594 -7.917969 20.425781 -7.792969 19.484375 -7.792969 C 17.097656 -7.792969 14.894531 -8.738281 14.894531 -11.753906 L 14.894531 -25.140625 L 22 -25.140625 L 22 -33.625 L 14.894531 -33.625 L 14.894531 -40.980469 L 5.027344 -40.101562 L 5.027344 -33.625 L 0.566406 -33.625 L 0.566406 -25.140625 L 5.027344 -25.140625 L 5.027344 -11.753906 C 5.027344 -2.953125 9.554688 0.566406 17.035156 0.566406 C 18.730469 0.566406 20.617188 0.378906 22.628906 0.0625 Z M 22.628906 0.0625 "/></g></g></g></svg>